PathFileType	3	(X/Y/Z)	results
DataRate	CameraRate	NumFrames	NumMarkers	Units	OrigDataRate	OrigDataStartFrame	OrigNumFrames
30.0	30.0	4	85	mm	30.0	60	478
Frame#	Time	head			nose			neck			shoulder_r			elbow_r			wrist_r			shoulder_l			elbow_l			wrist_l			hip_r			knee_r			ankle_r			hip_l			knee_l			ankle_l			heel_r			heel_l			mtoe_r			ltoe_r			mtoe_l			ltoe_l			asis_l			asis_r			psi_r			psi_l			mhnd_r			lhnd_r			mhnd_l			lhnd_l			l_lat_knee			r_med_wrist			l_lat_ankle			r_med_ankle			r_lat_knee			xiphoid			l_med_ankle			r_med_knee			l_med_elbow			navel			r_lat_elbow			r_lat_wrist			l_med_wrist			l_lat_elbow			l_med_knee			r_med_elbow			r_lat_ankle			l_lat_wrist			chin			T10			r_eye			l_eye			l_ear			r_ear			spinal_cord_8			spinal_cord_12			spinal_cord_27			spinal_cord_33			up_arm_r_0			up_arm_r_5			up_arm_l_0			up_arm_l_5			front_torso_11			front_torso_7			front_torso_4			front_torso_1			front_torso_10			thigh_r_2			thigh_r_3			thigh_l_1			thigh_l_5			shank_l_0			shank_l_4			shank_r_1			shank_r_2			foot_r_1			foot_r_3			foot_r_5			foot_r_6			foot_r_7			foot_l_1			foot_l_7			foot_l_0			foot_l_4			foot_l_5			foot_l_6			
		X1	Y1	Z1	X2	Y2	Z2	X3	Y3	Z3	X4	Y4	Z4	X5	Y5	Z5	X6	Y6	Z6	X7	Y7	Z7	X8	Y8	Z8	X9	Y9	Z9	X10	Y10	Z10	X11	Y11	Z11	X12	Y12	Z12	X13	Y13	Z13	X14	Y14	Z14	X15	Y15	Z15	X16	Y16	Z16	X17	Y17	Z17	X18	Y18	Z18	X19	Y19	Z19	X20	Y20	Z20	X21	Y21	Z21	X22	Y22	Z22	X23	Y23	Z23	X24	Y24	Z24	X25	Y25	Z25	X26	Y26	Z26	X27	Y27	Z27	X28	Y28	Z28	X29	Y29	Z29	X30	Y30	Z30	X31	Y31	Z31	X32	Y32	Z32	X33	Y33	Z33	X34	Y34	Z34	X35	Y35	Z35	X36	Y36	Z36	X37	Y37	Z37	X38	Y38	Z38	X39	Y39	Z39	X40	Y40	Z40	X41	Y41	Z41	X42	Y42	Z42	X43	Y43	Z43	X44	Y44	Z44	X45	Y45	Z45	X46	Y46	Z46	X47	Y47	Z47	X48	Y48	Z48	X49	Y49	Z49	X50	Y50	Z50	X51	Y51	Z51	X52	Y52	Z52	X53	Y53	Z53	X54	Y54	Z54	X55	Y55	Z55	X56	Y56	Z56	X57	Y57	Z57	X58	Y58	Z58	X59	Y59	Z59	X60	Y60	Z60	X61	Y61	Z61	X62	Y62	Z62	X63	Y63	Z63	X64	Y64	Z64	X65	Y65	Z65	X66	Y66	Z66	X67	Y67	Z67	X68	Y68	Z68	X69	Y69	Z69	X70	Y70	Z70	X71	Y71	Z71	X72	Y72	Z72	X73	Y73	Z73	X74	Y74	Z74	X75	Y75	Z75	X76	Y76	Z76	X77	Y77	Z77	X78	Y78	Z78	X79	Y79	Z79	X80	Y80	Z80	X81	Y81	Z81	X82	Y82	Z82	X83	Y83	Z83	X84	Y84	Z84	X85	Y85	Z85	
60	2.0	-106.07325378590798	2058.748003409392	1717.8891307450756	-74.099062439991	1810.4376342468586	1619.6221113815786	-68.96210749430215	1650.04287348526	1827.033388639799	135.90035861652788	1627.1690308836367	1804.2047891539373	267.504326979728	1345.2958528400015	1785.2331798399005	99.89478689753886	1410.8284050552634	1559.2015867997186	-232.43018758004925	1599.088322705354	1830.3581588519035	-289.0370250390268	1291.0807473465702	1818.0197281984638	-143.64995097888695	1215.879633188849	1566.5007792801152	79.8682485902215	1128.5308151077263	1736.6705151525962	158.45432696942814	645.8590282190357	1725.951223262917	267.2621053853427	162.3924505562639	1754.6499813396229	-112.5015965232448	1116.7030440659464	1782.3010393218067	-74.91148865072726	635.8400124842076	1858.037634908536	-79.34881204799501	158.74836907744734	1926.487207077366	275.2559139233579	99.64044678790815	1768.6628241804303	-76.8176849247434	89.04115385088745	1953.899737663699	218.3409886484943	62.29285574572321	1525.6506376035911	305.027343884736	64.59937836485703	1575.402901691372	-163.9882749965415	79.2206417975659	1720.9690484579012	-220.91905575529162	71.24626679762149	1811.99732272809	-165.19191800119202	1186.5850195694452	1769.287893071642	117.27303729629965	1200.0915773015656	1704.8388173328283	55.60837127369872	1177.4286324241154	1862.327338168952	-41.75249975026722	1172.712302654825	1879.4609106181103	61.50227694346815	1396.4635942398309	1498.3628231360294	54.15851600599199	1449.4776421718464	1496.2129040906652	-116.09818907085292	1169.350402489009	1512.73696331627	-97.72410651039021	1214.620187953405	1491.0854751970596	-131.8849937657161	627.7024872338262	1885.2687044723039	114.07307150325269	1377.861862563239	1553.4097840065735	-138.35409139867943	144.9976049306817	1958.053963121987	224.5856104027113	139.87484866016507	1746.2692539318914	212.10431987271838	643.1549679513301	1713.938670575866	-62.20305141408933	1472.529968254792	1710.6318486792272	-51.14087057045412	140.18516321500346	1898.9605720902457	107.30961458038391	631.014415694565	1726.4903224429404	-264.5549109586289	1295.7605105325658	1853.1762832878005	-34.466995122178275	1236.5714718526865	1676.620742667523	298.9387435949814	1370.2951435785885	1759.5907943818281	91.09739507998482	1439.522070888764	1585.7751811711669	-171.46271202701462	1185.8333564008567	1574.6701396758767	-322.4731524427073	1311.6276214061054	1790.9126126421622	-40.795625621483744	628.4887271709243	1806.0251230618464	232.97608554493732	1335.4118182445125	1810.5223631681984	329.7131398761283	151.73809109623292	1741.4126944546215	-139.19768669713557	1255.7581095972814	1568.6878713943559	-65.49555747311436	1723.5972734516934	1666.0758341046683	-20.083861278021605	1474.3853250079728	1920.5425710619168	-36.941592750581705	1854.0556610852868	1612.842913504059	-123.48548956310859	1843.275574235244	1608.7015789704485	-198.14103945707618	1858.461941015267	1732.0800029156014	16.685810955744216	1882.1404380473643	1746.4353676588235	-67.37558954498382	1711.2924126638266	1884.3695079996578	-38.40495650640284	1581.9515423438916	1929.6256135683107	13.557078217471236	1313.854812240552	1887.7912309345816	-21.628309026659398	1464.657803662002	1905.8307447925845	186.04385857412382	1484.5732726248068	1741.9099977579012	244.21633636012103	1470.3780235837253	1828.4971414112993	-272.80942736122427	1543.0354303393135	1809.3105496529256	-259.23388817068866	1372.4283410222097	1869.0833254830306	24.651665593470675	1273.1780835109294	1710.1874716739626	-54.303305115626685	1380.5400396563266	1670.2122412401422	-143.64444425045872	1510.0568751597639	1723.091192050084	-114.6134865973327	1288.5407703732833	1735.427300784589	11.551016966736455	1580.8531226740834	1685.1465672476966	100.25947717759657	862.8565155802985	1731.0839543827074	225.30737008646923	837.8956191062763	1714.3158001712484	-36.14573625474088	771.7377916327143	1804.604734006164	-223.36370052177836	982.3980269114876	1844.7640181878676	-160.30945792103324	277.7759476519401	1930.3267597391537	-23.279544573273547	446.977687164511	1856.6035680336126	277.4118731411331	454.23221347280554	1727.3277639775536	164.81760555353983	382.328099566843	1743.2932698888462	248.2849354261133	56.399129675913194	1540.592100331779	278.6966419855635	60.39377720174527	1552.726221754116	224.57735701558994	84.80321787631371	1616.97857708123	267.9941002978545	93.77039427655706	1621.7507528620972	305.1535263715905	80.144304476767	1629.0237692975613	-203.2134708597633	69.20718508874187	1768.7801075451994	-175.3107314146715	107.20139723932098	1881.2103741439473	-214.88161667591453	70.32509348265023	1783.0932850164966	-188.6036384657248	67.82327338920437	1751.851675581572	-169.8776392621108	87.62068208207104	1812.994345306447	-125.74048137706353	100.0905873435742	1829.3664392764556	
61	2.033333333333333	-123.2222344179935	2055.5555814256263	1705.0366788375325	-79.01686512018722	1804.8237028373755	1618.340624571518	-70.22251757360804	1650.2353278978785	1826.1625213398409	130.95287822321563	1627.7916738893484	1804.5812820510944	264.14113751865904	1346.7108220465689	1784.9227657664794	98.59869801996871	1371.7474711726932	1549.4517032045394	-234.7082010940854	1602.636360658113	1830.920056935685	-283.21944565419506	1293.1394403259235	1821.7793319856012	-156.02578728405587	1203.6084707343934	1565.1465801908569	77.6180069950456	1126.997198293882	1740.637937925367	157.6721456799289	644.6971065521357	1723.1529908178256	266.2182155788438	161.2900936382286	1753.7813053496143	-114.55410240225068	1115.5360655336985	1787.1859885655351	-75.86606253822129	634.207760554004	1859.4221987496821	-82.02945958649083	157.0217718047131	1927.0758361668845	274.19497202196703	98.52508162631983	1767.9765101512342	-80.14450254707958	86.66474054669796	1954.0239607762105	216.50141502997334	61.235079335809324	1525.1391503580194	303.3023648486161	62.93518389575413	1574.7157251455483	-163.59809047664004	82.94964440305192	1719.559556384692	-221.98556727893154	72.75189145470856	1809.4359134454664	-167.498643789467	1184.9854768876141	1772.946703016704	114.69648353401867	1198.0062786257529	1707.2281343047325	53.65354107981575	1178.363463746742	1865.363181974467	-43.63199239595434	1173.7114873624125	1882.9366383778906	63.55040361662423	1347.4174952364453	1489.7745961632215	51.639545758721766	1398.9940232275135	1481.5870763787063	-132.69406229515442	1154.1069529774425	1512.044347191192	-115.32330319405337	1197.9907917687005	1486.9801746554424	-132.96214793383325	625.6948956002246	1886.2635987266647	115.79892441770237	1339.773589509144	1547.6671133172515	-141.28252254831477	143.3780951402328	1958.222123421871	223.5613860893228	138.75964523891594	1745.3352409487056	211.40670073169886	642.3851434415037	1711.5764508871173	-65.49098052753325	1471.6056686586012	1711.3805878098183	-53.685823085070425	138.4271943292596	1899.7102342843987	106.57889871453905	629.7631232987111	1723.352857926821	-257.06572558248195	1298.5778232106718	1855.5974392224282	-38.77197652285626	1235.2672839270995	1679.2446437189328	294.4165275458251	1371.5749578274754	1757.797232998888	86.47896278063725	1402.2418010066647	1572.475263860526	-183.55534084680826	1174.404343546419	1576.6491673364033	-318.5964435552574	1312.6843862715477	1796.453308400224	-41.411100541276305	627.3839679120719	1807.568051756324	230.6346374052946	1336.9303373178345	1811.5890920695233	328.70826366393004	150.57161476852744	1740.7820380782618	-150.9916706848189	1243.4775701362623	1565.0393759101964	-67.36870380774944	1720.565103013066	1668.7194456104185	-20.450586666440042	1475.3585625943333	1920.6585336272578	-43.685570982314914	1849.6945248596853	1610.126226940217	-129.60745213915203	1834.9478583674284	1605.3123755146385	-206.72860795587732	1852.2290368876895	1726.8854011230405	6.625445664711433	1885.938276754235	1743.0427006556024	-67.69783281735008	1712.0242910278196	1882.882920441456	-38.39683768358429	1583.050551515005	1928.9665358081688	12.363181039237846	1314.4421962010265	1888.9790718991972	-22.221914764521152	1465.4951001524892	1906.0632491836134	180.0023035261537	1484.6901686421886	1742.5758389841167	241.38678100334997	1472.2311448770165	1827.190225259887	-274.5482535858166	1545.430373832397	1812.0611892695306	-253.0701431955785	1375.398423228628	1871.1516746960876	20.891851616954778	1272.0485221326317	1711.6352825806805	-58.36541237620983	1379.215953948448	1671.7363635778079	-146.6648480686512	1509.4469920543086	1724.6109286328553	-117.97298624896123	1287.9887025698595	1738.6595529314864	8.14945318206774	1579.5019079396034	1683.8386919456614	98.82139690829553	861.4922486719845	1731.2900356800544	224.03486598200362	837.1364131943752	1714.871347848496	-37.21603674781275	770.6538244481192	1807.2797927065653	-225.34707849929038	980.3995765192346	1847.9553332145242	-162.69838197122886	276.25815867970823	1930.5603465214115	-24.72639688219727	445.2112039613105	1858.033560972269	276.5580690482261	453.0357831203042	1725.541109438117	163.88752964619206	381.22200033754484	1741.3745620772934	246.42745619458375	55.128451863334746	1540.0309073124934	276.8939974032225	58.90160538080514	1552.0981848315391	223.09806267890448	83.84364206551896	1616.4175067958095	266.59392748795017	92.47410900418144	1621.0889408848782	303.6586451637293	78.56571475712659	1628.3106657837648	-203.5949803151409	71.78656767826325	1766.4681611187923	-177.44008555276542	106.84765448748418	1880.2632820364959	-215.48865648618647	72.55883524864035	1780.6175945076966	-188.71859589468053	70.81005900402337	1749.7447093128703	-170.94473457060042	89.00644203966793	1811.6640762045283	-127.05796930342348	100.9770532433387	1829.0505366308923	
62	2.0666666666666664	-138.8594478671759	2051.2752933538795	1690.865654153359	-83.26914699799775	1798.4743602381009	1617.8026532191616	-71.4582524484666	1650.2392342607332	1825.260081692261	128.15587013404078	1628.3851464714942	1807.0368048164637	254.66737810425656	1344.4786634235033	1784.1465845521607	105.55791042043933	1304.563466825842	1539.9112511003646	-236.36040906635193	1603.735617748758	1832.6348797161586	-288.5193701124321	1294.9991984556948	1818.9782483165409	-160.46735345194645	1199.5699170090454	1564.9106907435973	75.92123170258559	1126.0613388953288	1744.1720515751076	157.84222845010316	644.2687703062892	1720.8583454105385	263.3599064391889	160.3185427882675	1753.429498183376	-116.12185469936324	1114.435572216714	1791.2091935705635	-77.8371601183512	632.5507147350181	1860.1497482606221	-82.0062476190093	155.35325034748067	1927.8746969066553	270.773500070555	97.44180196308449	1767.7627638373158	-80.04112845935911	84.59707489957668	1954.5653851008774	217.3235499390328	61.37294870232952	1523.772569862341	303.2553481005076	62.92359776007322	1574.8455917509275	-162.60476803272812	84.46830546367534	1719.7567629355617	-221.36873762285234	73.18549291133577	1809.2572947215187	-169.3839092083233	1183.4580430597455	1776.104408856552	112.64232652982794	1196.7574123085728	1709.7199937463433	51.949871756508394	1179.0449915990555	1868.2175343819792	-45.28531821187015	1174.2267562920317	1886.0232839659782	78.60349701868347	1265.533402646556	1483.9487505951972	60.7088391316845	1312.687888288206	1465.9132867052633	-137.85392640265033	1148.9482186838343	1512.5590587107022	-118.87712221582194	1192.0892540569448	1487.370186296514	-135.0330797095575	623.8989513422268	1886.685839337899	126.87395506574764	1275.5370805226062	1544.8566324494943	-141.33724491495465	141.42874053907838	1958.7471341204084	220.69295217862577	138.00921538084953	1744.463610843458	211.629691096909	642.3477512031734	1709.5713660373633	-68.18080081130569	1470.5728941930902	1712.056285708587	-53.44556841715069	136.89095206673795	1900.6455332447395	106.81448609429704	629.1895933911247	1720.8630848725254	-262.9789241061953	1299.7256677557614	1853.3672518617177	-42.20654049697159	1233.9040789990763	1681.796313948937	284.094722584071	1368.450029906071	1755.336447392146	87.85130356942	1336.5493983942379	1556.3506165108593	-188.98654009540184	1171.2751030147579	1576.274069177899	-323.13947262279635	1315.2735520735175	1793.183996036089	-43.101137186890114	626.1441205234071	1808.4495720683856	222.28945422325475	1335.6479713494139	1812.4860501880005	325.95211395093014	149.24591397460213	1741.24404380077	-154.27925182179965	1239.2746622828636	1564.5371793451043	-68.78009982138892	1717.489311435214	1672.6178545586736	-21.073087115995428	1476.1279520691035	1920.838431832285	-49.720627038015735	1844.3012005333846	1607.6259710532972	-134.89417918150082	1825.7417622529747	1602.7045621404231	-214.16755782673815	1846.0297547982368	1722.4143827809626	-2.603885469896511	1889.4299161644008	1738.984292532683	-68.26307070329489	1712.5323952721672	1881.3921275917035	-38.7421380671302	1583.9242961655389	1928.3489671945354	11.136284465904273	1314.870524761104	1890.2932662581527	-23.00599459168466	1466.1366177655516	1906.351025919262	171.34137009256156	1483.7026826455945	1744.3426332286406	236.4489218065313	1470.8529900699343	1826.0663618738668	-276.52419890508276	1547.25370004802	1812.3352600267463	-258.34034380922907	1376.3097567593059	1869.8798043968404	17.83995797427663	1270.8628982609112	1713.264536939989	-61.61313950912807	1377.816025226498	1673.1805001191628	-149.1518718597723	1508.6857007239294	1725.7421937099646	-120.72275970875553	1287.309185594443	1741.5087688666538	5.379238717375983	1578.0766431497602	1682.8170569138067	98.15673002301764	860.7727891446069	1731.6256066791066	223.51145278426986	837.089576873145	1715.3010298898153	-38.89811662844693	769.4120280360048	1809.2076884958738	-227.2146610016879	978.8763352116979	1850.470893809041	-163.2667666651513	274.19834273578135	1930.9576931273855	-25.777335565594292	443.8037032364693	1859.039595079827	275.64501278562034	451.96934367244876	1724.989120690588	162.3925826568714	380.7862443480854	1739.4605238603694	246.99734782608328	55.226651476582596	1539.1450131761385	277.24616178612484	58.97579334170389	1551.7552945644243	222.3151384768033	83.50230779372569	1615.2699836671327	265.7117920346331	92.16552538562489	1620.7359357755713	302.66637932605556	78.26804738487236	1628.521089645031	-202.81636635351637	72.76991948325535	1766.3503011437447	-176.98887568799904	106.13270791925267	1880.7292893655635	-214.76182124043544	73.37973576213278	1780.464004659817	-187.87899390203287	71.98280733349891	1749.6712849368294	-170.28609206873793	89.24388240371199	1811.9093086097885	-126.42908995729063	100.82700313134107	1829.630126434283	
63	2.1	-149.79935452653248	2045.9951619090577	1677.1807020743704	-87.58166892937821	1791.3919760988902	1616.8236576247652	-72.51342506412288	1650.283914375686	1823.901968535669	129.78776609008418	1626.416509051547	1813.7495749095267	240.3060175461657	1337.0268909563335	1779.5241460134212	109.48784792687799	1239.3435128639073	1541.1498216397536	-239.7398924626129	1600.5438437107318	1834.2034141630575	-300.5012336661995	1294.140340206915	1808.704593558538	-157.3175851269534	1196.4096500201981	1563.7524645089218	74.6553875414775	1125.233774857478	1747.7508095970325	158.09720135985634	643.9952568578819	1718.098052188966	261.1659663522091	159.65856919333788	1752.7027591086025	-117.48210670870593	1113.0035246868958	1794.2459974854405	-80.10783053832775	630.6712875141508	1860.8626776875712	-78.96692670136255	153.4901761956668	1928.821159990243	268.09822398004223	96.65098442387374	1767.2190161157112	-76.17111594213468	82.65478997875779	1955.4426905674268	219.35436177336015	62.04078178126173	1522.0349141213783	304.3612139157612	64.24268343517353	1574.6098010023145	-161.4103598531703	82.91971493577675	1721.592179948816	-219.2031011025004	71.92966344148448	1811.759075193635	-171.1576057644422	1181.4168323401673	1777.885600482137	111.02282626149731	1195.645703790807	1712.354657901798	49.84715956839769	1179.944906496952	1870.878463906888	-47.42015345364174	1174.728374197265	1888.3941678935255	90.4088097784771	1188.6741303586102	1491.649399880676	67.64069686958837	1229.5708228221279	1465.6087425376102	-132.85858781959465	1145.5048917932468	1512.5169315135054	-110.21918414260868	1188.0984204916258	1489.5170176467477	-137.33190939547552	622.0359403785993	1887.2858665153353	134.01058682646806	1214.5436402895596	1551.3949792760422	-138.1651329382838	138.9138395379917	1959.6475996326335	218.44764676919792	137.52132969433495	1743.5567211465143	211.86767292476063	642.4412346568907	1706.7998611899466	-69.78754154138711	1469.7835677084834	1712.0179693235862	-50.17585768721213	135.33722493753604	1901.6266584568748	107.13261256883723	628.7921894274442	1718.2514081406566	-277.6829529091227	1297.2267062333015	1845.1333990167816	-44.501610717836506	1232.8256601622427	1683.4867946403774	268.6666075019473	1359.86649466147	1748.7890120897434	87.12619358523035	1270.9279697313548	1551.6023322983208	-187.7795042598348	1169.2211277853298	1572.4658230257394	-332.2570295426608	1316.1506254427072	1780.7392375756826	-45.24271873518751	624.5218085903583	1809.2420469030378	209.70858743911657	1329.4563331751026	1810.1169607842394	323.774885494011	148.2588288273705	1740.9111514136137	-149.47402806856218	1235.8161926374496	1564.4609286471389	-70.92450242794106	1713.6798157113583	1675.6163089311076	-22.596781460429263	1476.734393860952	1920.7395496079498	-55.26294780246124	1837.5178537328436	1604.2908598494112	-139.91844830743193	1816.492668179527	1600.4705448869302	-219.63365160154007	1840.6820914993052	1719.1578252685006	-9.282912631759316	1890.4300859229115	1733.1230335590442	-69.12158053586094	1712.9776184041898	1879.5746596680424	-39.9543146647702	1584.6331665194155	1927.4645926082478	9.14032653336146	1315.165555933086	1891.3682165351004	-24.562994483648975	1466.642672234608	1906.32639646482	161.15309314494024	1480.5105201726717	1746.9946457694016	231.391680350666	1463.6718472548487	1823.5836506908981	-279.9240502763788	1545.9269734565871	1809.3509988812843	-271.9390359046428	1373.2208980259463	1863.8735627868175	15.660735003866007	1269.8418298577114	1714.6650033195137	-63.49835082450983	1376.7256384491386	1673.8215623885073	-150.6446039400742	1508.2278645456397	1725.448380604206	-122.84515232961864	1286.8922732385415	1742.8296139217066	4.07094811833503	1576.8585142642983	1681.9688881235309	97.73622001497218	860.1955005543289	1731.8815430523332	223.11776002652297	837.1371349863888	1714.882305685259	-40.82198731749341	767.777660169326	1810.7088691444635	-228.89871472742774	977.3275543886017	1852.6261140139472	-161.562543206837	271.41466876953723	1931.7725988605148	-25.926125139618264	442.5216283008264	1859.8928013143418	274.9755135902405	451.1632538824942	1723.4746258186378	161.31071746709438	380.55088561913936	1737.5022998851287	248.83443557886878	56.14001404982109	1537.8693529389056	278.80920637513117	60.16505225466888	1551.0366681765236	222.4733469130158	83.42960794131174	1613.7910652508008	265.6530691905696	92.59887283295681	1620.0865935761128	302.643964826885	79.10744727208282	1628.3959325263872	-201.1441688176653	71.42100136613193	1768.643074608036	-173.84889744566811	104.66221396753741	1882.7161994818057	-212.924541339149	72.09009732795467	1782.8921984104998	-186.40227352804055	70.55980926863357	1751.7946594195944	-168.01534867703697	87.73737792309272	1813.8259307902197	-123.90255813181169	99.10605547443693	1831.0435840975053	
